# xmcd
#
# Track frame offsets: 
#        150
#        15044
#        29453
#        41276
#        50936
#        65305
#        80267
#        91802
#        106427
#        115641
#        127729
#        140611
#        152679
#        163572
#        174409
#        185247
#        196122
#        209982
#        219484
#        229922
#        242794
#        253399
#        264320
#        274007
#        285152
#
# Disc length: 3971 seconds
#
# Revision: 1
# Processed by: cddbd v1.5.1PL2 Copyright (c) Steve Scherf et al.
# Submitted via: ExactAudioCopy v0.95b3
#
DISCID=5b0f8119
DTITLE=Various Artist - The Complete Motown Singles Volume 3 [CD13)
DYEAR=2005
DGENRE=R&B/Soul
TTITLE0=Little Stevie Wonder - Fingertips (Part 1) (1st Pressing)
TTITLE1=Little Stevie Wonder - Fingertips (Part 2) (1st Pressing)
TTITLE2=The Burnadettes - First, You've Got To Recognize God
TTITLE3=The Burnadettes - I'm Going Home
TTITLE4=Little Stevie Wonder - Fingertips (Part 2) (2nd Pressing)
TTITLE5=Little Stevie Wonder - Fingertips (Part 1) (2nd Pressing)
TTITLE6=Bunny Paul - I'm Hooked
TTITLE7=Bunny Paul - We're Only Young Once
TTITLE8=The Stylers - Going Steady Anniversary
TTITLE9=The Stylers - Pushing Up Daisies
TTITLE10=The Wright Specials - Ninety-Nine And A Half Won't Do
TTITLE11=The Wright Specials - I Won't Go Back
TTITLE12=The Contours - Pa (I Need A Car)
TTITLE13=The Contours - You Get Ugly
TTITLE14=Amos Milburn - My Daily Prayer
TTITLE15=The Supremes - A Breath Taking Guy
TTITLE16=The Supremes - (The Man With The) Rock And Roll Banjo Band
TTITLE17=Holland and Dozier - What Goes Up Must Come Down
TTITLE18=Holland and Dozier - Come On Home
TTITLE19=Mable John - Who Wouldn't Love A Man Like That
TTITLE20=Mable John - Say You'll Never Let Me Go
TTITLE21=The Temptations - Farewell My Love
TTITLE22=The Temptations - May I Have This Dance
TTITLE23=The Marvelettes - My Daddy Knows Best
TTITLE24=The Marvelettes - Tie A String Around Your Finger
EXTD=
EXTT0=
EXTT1=
EXTT2=
EXTT3=
EXTT4=
EXTT5=
EXTT6=
EXTT7=
EXTT8=
EXTT9=
EXTT10=
EXTT11=
EXTT12=
EXTT13=
EXTT14=
EXTT15=
EXTT16=
EXTT17=
EXTT18=
EXTT19=
EXTT20=
EXTT21=
EXTT22=
EXTT23=
EXTT24=
PLAYORDER=
